<svg preserveAspectRatio="none" width="100%" height="100%" overflow="visible" style="display: block;" viewBox="0 0 23.9936 23.9936" fill="none" xmlns="http://www.w3.org/2000/svg">
<g id="Icon">
<path id="Vector" d="M10.3222 4.31585C10.7481 2.56032 13.2455 2.56032 13.6714 4.31585C13.7353 4.57958 13.8605 4.82449 14.037 5.03066C14.2134 5.23682 14.436 5.39841 14.6867 5.50228C14.9374 5.60614 15.2091 5.64934 15.4797 5.62837C15.7502 5.60739 16.012 5.52283 16.2437 5.38156C17.7863 4.44182 19.5528 6.20734 18.613 7.75093C18.472 7.98253 18.3875 8.24414 18.3666 8.5145C18.3457 8.78487 18.3889 9.05635 18.4926 9.3069C18.5963 9.55744 18.7577 9.77997 18.9637 9.9564C19.1696 10.1328 19.4143 10.2582 19.6778 10.3222C21.4333 10.7481 21.4333 13.2455 19.6778 13.6714C19.414 13.7353 19.1691 13.8605 18.9629 14.037C18.7568 14.2134 18.5952 14.436 18.4913 14.6867C18.3875 14.9374 18.3443 15.2091 18.3652 15.4797C18.3862 15.7502 18.4708 16.012 18.612 16.2437C19.5518 17.7863 17.7863 19.5528 16.2427 18.613C16.0111 18.472 15.7495 18.3875 15.4791 18.3666C15.2087 18.3457 14.9372 18.3889 14.6867 18.4926C14.4362 18.5963 14.2136 18.7577 14.0372 18.9637C13.8608 19.1696 13.7354 19.4143 13.6714 19.6778C13.2455 21.4333 10.7481 21.4333 10.3222 19.6778C10.2583 19.414 10.1331 19.1691 9.95663 18.9629C9.78019 18.7568 9.55756 18.5952 9.30687 18.4913C9.05617 18.3875 8.78449 18.3443 8.51394 18.3652C8.2434 18.3862 7.98162 18.4708 7.74993 18.612C6.20734 19.5518 4.44082 17.7863 5.38056 16.2427C5.52163 16.0111 5.60606 15.7495 5.62698 15.4791C5.64791 15.2087 5.60475 14.9372 5.501 14.6867C5.39726 14.4362 5.23586 14.2136 5.02993 14.0372C4.824 13.8608 4.57934 13.7354 4.31585 13.6714C2.56032 13.2455 2.56032 10.7481 4.31585 10.3222C4.57958 10.2583 4.82449 10.1331 5.03066 9.95663C5.23682 9.78019 5.39841 9.55756 5.50228 9.30687C5.60614 9.05617 5.64934 8.78449 5.62837 8.51394C5.60739 8.2434 5.52283 7.98162 5.38156 7.74993C4.44182 6.20734 6.20734 4.44082 7.75093 5.38056C8.74667 5.9884 10.0463 5.45055 10.3222 4.31585Z" stroke="var(--stroke-0, #99A1AF)" stroke-width="1.99947" stroke-linecap="round" stroke-linejoin="round"/>
<path id="Vector_2" d="M14.996 11.9968C14.996 12.7922 14.68 13.5551 14.1176 14.1176C13.5551 14.68 12.7922 14.996 11.9968 14.996C11.2014 14.996 10.4385 14.68 9.87604 14.1176C9.31359 13.5551 8.9976 12.7922 8.9976 11.9968C8.9976 11.2014 9.31359 10.4385 9.87604 9.87604C10.4385 9.31359 11.2014 8.9976 11.9968 8.9976C12.7922 8.9976 13.5551 9.31359 14.1176 9.87604C14.68 10.4385 14.996 11.2014 14.996 11.9968Z" stroke="var(--stroke-0, #99A1AF)" stroke-width="1.99947" stroke-linecap="round" stroke-linejoin="round"/>
</g>
</svg>
