<svg preserveAspectRatio="none" width="100%" height="100%" overflow="visible" style="display: block;" viewBox="0 0 23.9936 23.9936" fill="none" xmlns="http://www.w3.org/2000/svg">
<g id="Icon">
<path id="Vector" d="M11.9968 7.99787V11.9968L14.996 14.996M20.9944 11.9968C20.9944 13.1784 20.7617 14.3484 20.3095 15.44C19.8573 16.5317 19.1946 17.5236 18.3591 18.3591C17.5236 19.1946 16.5317 19.8573 15.44 20.3095C14.3484 20.7617 13.1784 20.9944 11.9968 20.9944C10.8152 20.9944 9.64521 20.7617 8.55357 20.3095C7.46193 19.8573 6.47004 19.1946 5.63454 18.3591C4.79903 17.5236 4.13627 16.5317 3.6841 15.44C3.23193 14.3484 2.9992 13.1784 2.9992 11.9968C2.9992 9.61049 3.94716 7.32191 5.63454 5.63454C7.32191 3.94716 9.61049 2.9992 11.9968 2.9992C14.3831 2.9992 16.6717 3.94716 18.3591 5.63454C20.0464 7.32191 20.9944 9.61049 20.9944 11.9968Z" fill="var(--fill-0, #155DFC)"/>
</g>
</svg>
