<svg preserveAspectRatio="none" width="100%" height="100%" overflow="visible" style="display: block;" viewBox="0 0 23.9936 23.9936" fill="none" xmlns="http://www.w3.org/2000/svg">
<g id="Icon">
<path id="Vector" d="M10.2653 20.9944C10.4408 21.2984 10.6933 21.5509 10.9973 21.7264C11.3013 21.9019 11.6462 21.9943 11.9973 21.9943C12.3483 21.9943 12.6932 21.9019 12.9972 21.7264C13.3012 21.5509 13.5537 21.2984 13.7293 20.9944" stroke="var(--stroke-0, #4A5565)" stroke-width="1.99947" stroke-linecap="round" stroke-linejoin="round"/>
<path id="Vector_2" d="M3.26113 15.3219C3.13053 15.4651 3.04434 15.6431 3.01305 15.8343C2.98176 16.0255 3.00672 16.2217 3.08488 16.399C3.16305 16.5763 3.29106 16.7271 3.45333 16.833C3.61561 16.9389 3.80516 16.9953 3.99893 16.9955H19.9947C20.1884 16.9955 20.378 16.9393 20.5404 16.8336C20.7028 16.7279 20.8309 16.5773 20.9093 16.4001C20.9877 16.2229 21.0129 16.0268 20.9818 15.8356C20.9508 15.6443 20.8649 15.4662 20.7345 15.3229C19.4048 13.9523 17.9952 12.4957 17.9952 7.99786C17.9952 6.40699 17.3632 4.88127 16.2383 3.75636C15.1134 2.63144 13.5877 1.99947 11.9968 1.99947C10.4059 1.99947 8.88021 2.63144 7.75529 3.75636C6.63037 4.88127 5.9984 6.40699 5.9984 7.99786C5.9984 12.4957 4.58778 13.9523 3.26113 15.3219Z" stroke="var(--stroke-0, #4A5565)" stroke-width="1.99947" stroke-linecap="round" stroke-linejoin="round"/>
</g>
</svg>
