<svg preserveAspectRatio="none" width="100%" height="100%" overflow="visible" style="display: block;" viewBox="0 0 23.9936 23.9936" fill="none" xmlns="http://www.w3.org/2000/svg">
<g id="Icon">
<path id="Vector" d="M2.9992 11.9968L4.99867 9.99733M4.99867 9.99733L11.9968 2.9992L18.9949 9.99733M4.99867 9.99733V19.9947C4.99867 20.2598 5.104 20.5141 5.29148 20.7016C5.47897 20.8891 5.73325 20.9944 5.9984 20.9944H8.9976M18.9949 9.99733L20.9944 11.9968M18.9949 9.99733V19.9947C18.9949 20.2598 18.8896 20.5141 18.7021 20.7016C18.5146 20.8891 18.2603 20.9944 17.9952 20.9944H14.996M8.9976 20.9944C9.26275 20.9944 9.51703 20.8891 9.70452 20.7016C9.892 20.5141 9.99733 20.2598 9.99733 19.9947V15.9957C9.99733 15.7306 10.1027 15.4763 10.2901 15.2888C10.4776 15.1013 10.7319 14.996 10.9971 14.996H12.9965C13.2617 14.996 13.516 15.1013 13.7035 15.2888C13.8909 15.4763 13.9963 15.7306 13.9963 15.9957V19.9947C13.9963 20.2598 14.1016 20.5141 14.2891 20.7016C14.4766 20.8891 14.7309 20.9944 14.996 20.9944M8.9976 20.9944H14.996" stroke="var(--stroke-0, #99A1AF)" stroke-width="1.99947" stroke-linecap="round" stroke-linejoin="round"/>
</g>
</svg>
