<svg preserveAspectRatio="none" width="100%" height="100%" overflow="visible" style="display: block;" viewBox="0 0 23.9936 23.9936" fill="none" xmlns="http://www.w3.org/2000/svg">
<g id="Icon">
<path id="Vector" d="M7.99787 9.99733H8.00786M11.9968 9.99733H12.0068M15.9957 9.99733H16.0057M8.9976 15.9957H4.99867C4.46838 15.9957 3.9598 15.7851 3.58483 15.4101C3.20986 15.0351 2.9992 14.5266 2.9992 13.9963V5.9984C2.9992 5.46811 3.20986 4.95954 3.58483 4.58456C3.9598 4.20959 4.46838 3.99893 4.99867 3.99893H18.9949C19.5252 3.99893 20.0338 4.20959 20.4088 4.58456C20.7837 4.95954 20.9944 5.46811 20.9944 5.9984V13.9963C20.9944 14.5266 20.7837 15.0351 20.4088 15.4101C20.0338 15.7851 19.5252 15.9957 18.9949 15.9957H13.9963L8.9976 20.9944V15.9957Z" stroke="var(--stroke-0, #99A1AF)" stroke-width="1.99947" stroke-linecap="round" stroke-linejoin="round"/>
</g>
</svg>
